# xmcd
#
# Track frame offsets:
#	150
#	44577
#	87761
#	116405
#	144881
#
# Disc length: 3016 seconds
#
# Revision: 0
# Processed by: cddbd v1.5.2PL0 Copyright (c) Steve Scherf et al.
# Submitted via: EasyCDDAExtractor 2010.6.0.0
#
DISCID=380bc605
DTITLE=Jamyang Sakya - Tara Mantras
DYEAR=1900
DGENRE=
TTITLE0=The Praises To The 21 Forms Of Tara
TTITLE1=Green Tara Mantra I (Om Tare Tuttare Ture Soha)
TTITLE2=Green Tara Mantra II
TTITLE3=100 Syllable Mantra
TTITLE4=White Tara Mantra (Om Tare Tuttare Ture Mama Ayuh Punye Gyana Putim Ku
TTITLE4=r
EXTD=
EXTT0=
EXTT1=
EXTT2=
EXTT3=
EXTT4=
PLAYORDER=
